<svg width="40" height="40" viewBox="0 0 40 40" fill="none" xmlns="http://www.w3.org/2000/svg">
<mask id="path-1-inside-1_2_55" fill="white">
<path fill-rule="evenodd" clip-rule="evenodd" d="M13.8792 22.6232C18.7084 22.6232 22.6232 18.7084 22.6232 13.8792C22.6232 10.5261 20.7359 7.61385 17.9655 6.1468C18.6298 6.05008 19.3092 6 20.0003 6C27.7325 6 34.0007 12.2682 34.0007 20.0003C34.0007 27.7325 27.7325 34.0007 20.0003 34.0007C12.2682 34.0007 6 27.7325 6 20.0003C6 19.3092 6.05008 18.6298 6.1468 17.9655C7.61385 20.7359 10.5261 22.6232 13.8792 22.6232Z"/>
</mask>
<path d="M17.9655 6.1468L17.3892 2.18854L5.27451 3.95249L16.0936 9.68175L17.9655 6.1468ZM6.1468 17.9655L9.68175 16.0936L3.95249 5.27451L2.18854 17.3892L6.1468 17.9655ZM18.6232 13.8792C18.6232 16.4993 16.4993 18.6232 13.8792 18.6232V26.6232C20.9176 26.6232 26.6232 20.9176 26.6232 13.8792H18.6232ZM16.0936 9.68175C17.6067 10.4831 18.6232 12.0656 18.6232 13.8792H26.6232C26.6232 8.98667 23.865 4.74465 19.8374 2.61186L16.0936 9.68175ZM18.5418 10.1051C19.0159 10.036 19.5027 10 20.0003 10V2C19.1157 2 18.2437 2.06412 17.3892 2.18854L18.5418 10.1051ZM20.0003 10C25.5234 10 30.0007 14.4773 30.0007 20.0003H38.0007C38.0007 10.059 29.9417 2 20.0003 2V10ZM30.0007 20.0003C30.0007 25.5234 25.5234 30.0007 20.0003 30.0007V38.0007C29.9417 38.0007 38.0007 29.9417 38.0007 20.0003H30.0007ZM20.0003 30.0007C14.4773 30.0007 10 25.5234 10 20.0003H2C2 29.9417 10.059 38.0007 20.0003 38.0007V30.0007ZM10 20.0003C10 19.5027 10.036 19.0159 10.1051 18.5418L2.18854 17.3892C2.06412 18.2437 2 19.1157 2 20.0003H10ZM13.8792 18.6232C12.0656 18.6232 10.4831 17.6067 9.68175 16.0936L2.61186 19.8374C4.74465 23.865 8.98667 26.6232 13.8792 26.6232V18.6232Z" fill="black" mask="url(#path-1-inside-1_2_55)"/>
</svg>
