<?xml version="1.0" encoding="UTF-8"?>
<svg id="_레이어_2" data-name="레이어 2" xmlns="http://www.w3.org/2000/svg" viewBox="0 0 48 48">
  <defs>
    <style>
      .cls-1 {
        fill: none;
      }

      .cls-1, .cls-2 {
        stroke-width: 0px;
      }
    </style>
  </defs>
  <g id="Layer_2" data-name="Layer 2">
    <g>
      <rect class="cls-1" width="48" height="48"/>
      <g>
        <path class="cls-2" d="m44,10c0-1.1-.9-2-2-2H6c-1.1,0-2,.9-2,2s.9,2,2,2h36c1.1,0,2-.9,2-2Z"/>
        <path class="cls-2" d="m42,22h-26c-1.1,0-2,.9-2,2s.9,2,2,2h26c1.1,0,2-.9,2-2s-.9-2-2-2Z"/>
        <path class="cls-2" d="m42,36h-16c-1.1,0-2,.9-2,2s.9,2,2,2h16c1.1,0,2-.9,2-2s-.9-2-2-2Z"/>
      </g>
    </g>
  </g>
</svg>