<?xml version="1.0" encoding="UTF-8"?><svg id="Layer_2" xmlns="http://www.w3.org/2000/svg" viewBox="0 0 48 48"><defs><style>.cls-1{fill:none;}.cls-1,.cls-2{stroke-width:0px;}.cls-2{fill:#1d1d1b;}</style></defs><g id="Layer_1-2"><circle class="cls-2" cx="24" cy="24" r="10"/><rect class="cls-2" x="23" y="4" width="2" height="8" rx="1" ry="1"/><rect class="cls-2" x="23" y="36" width="2" height="8" rx="1" ry="1"/><rect class="cls-2" x="39" y="20" width="2" height="8" rx="1" ry="1" transform="translate(64 -16) rotate(90)"/><rect class="cls-2" x="7" y="20" width="2" height="8" rx="1" ry="1" transform="translate(32 16) rotate(90)"/><rect class="cls-2" x="34.31" y="8.69" width="2" height="8" rx="1" ry="1" transform="translate(19.31 -21.25) rotate(45)"/><rect class="cls-2" x="11.69" y="31.31" width="2" height="8" rx="1" ry="1" transform="translate(28.69 1.37) rotate(45)"/><rect class="cls-2" x="34.31" y="31.31" width="2" height="8" rx="1" ry="1" transform="translate(85.25 35.31) rotate(135)"/><rect class="cls-2" x="11.69" y="8.69" width="2" height="8" rx="1" ry="1" transform="translate(30.63 12.69) rotate(135)"/><rect class="cls-1" width="48" height="48"/></g></svg>