<svg width="40" height="40" viewBox="0 0 40 40" fill="none" xmlns="http://www.w3.org/2000/svg">
<circle cx="20" cy="20" r="9" stroke="black" stroke-width="4"/>
<rect x="33" y="19" width="2" height="2" rx="1" stroke="black" stroke-width="2"/>
<rect x="5" y="19" width="2" height="2" rx="1" stroke="black" stroke-width="2"/>
<rect x="21" y="33" width="2" height="2" rx="1" transform="rotate(90 21 33)" stroke="black" stroke-width="2"/>
<rect x="21" y="5" width="2" height="2" rx="1" transform="rotate(90 21 5)" stroke="black" stroke-width="2"/>
<rect x="29.8995" y="28.4853" width="2" height="2" rx="1" transform="rotate(45 29.8995 28.4853)" stroke="black" stroke-width="2"/>
<rect x="10.1005" y="8.68629" width="2" height="2" rx="1" transform="rotate(45 10.1005 8.68629)" stroke="black" stroke-width="2"/>
<rect x="11.5147" y="29.8995" width="2" height="2" rx="1" transform="rotate(135 11.5147 29.8995)" stroke="black" stroke-width="2"/>
<rect x="31.3137" y="10.1005" width="2" height="2" rx="1" transform="rotate(135 31.3137 10.1005)" stroke="black" stroke-width="2"/>
</svg>
