<?xml version="1.0" encoding="UTF-8"?><svg id="Layer_2" xmlns="http://www.w3.org/2000/svg" viewBox="0 0 48 48"><defs><style>.cls-1{fill:none;}.cls-1,.cls-2{stroke-width:0px;}.cls-2{fill:#1d1d1b;}</style></defs><g id="Layer_1-2"><path class="cls-2" d="m14.1,9.86l8.9,8.9c.57.57,1.32.88,2.12.88h4.41l.83.83-9.9,9.9-.83-.83v-4.41c0-.8-.31-1.55-.88-2.12l-8.9-8.9,4.24-4.24m0-2.41c-.26,0-.51.1-.71.29l-5.66,5.66c-.39.39-.39,1.02,0,1.41l9.61,9.61c.19.19.29.44.29.71v4.83c0,.27.11.52.29.71l1.83,1.83c.2.2.45.29.71.29s.51-.1.71-.29l11.31-11.31c.39-.39.39-1.02,0-1.41l-1.83-1.83c-.19-.19-.44-.29-.71-.29h-4.83c-.27,0-.52-.11-.71-.29L14.81,7.74c-.2-.2-.45-.29-.71-.29h0Z"/><path class="cls-2" d="m26.12,26.12h0c.39-.39,1.05-.36,1.48.06l10.48,10.48c.2.2.33.48.34.75h0c.03.58-.42,1.03-1,1h0c-.28-.01-.55-.13-.75-.34l-10.48-10.48c-.43-.43-.45-1.09-.06-1.48Z"/><rect class="cls-1" width="48" height="48"/></g></svg>