<?xml version="1.0" encoding="UTF-8"?>
<svg id="_레이어_2" data-name="레이어 2" xmlns="http://www.w3.org/2000/svg" viewBox="0 0 48 48">
  <defs>
    <style>
      .cls-1 {
        fill: none;
      }

      .cls-1, .cls-2 {
        stroke-width: 0px;
      }
    </style>
  </defs>
  <g id="Layer_2" data-name="Layer 2">
    <g>
      <rect class="cls-1" width="48" height="48"/>
      <path class="cls-2" d="m29.65,15.51c-1.95,1.95-5.12,1.95-7.07,0l-5.65-5.65s0,0,0,0c-.38-.39-.38-1.01,0-1.4,0,0,0,0,0,0,.78-.78.78-2.05,0-2.83s-2.05-.78-2.83,0L5.62,14.1c-.78.78-.78,2.05,0,2.83s2.05.78,2.83,0c0,0,0,0,0,0,.39-.38,1.02-.38,1.4,0,0,0,0,0,0,0l5.65,5.65c1.95,1.95,1.95,5.12,0,7.07-.78.78-.78,2.05,0,2.83s2.05.78,2.83,0l5.66-5.66,11.32,11.32c.78.78,2.05.78,2.83,0s.78-2.05,0-2.83l-11.32-11.32,5.66-5.66c.78-.78.78-2.04,0-2.83s-2.05-.78-2.83,0Z"/>
    </g>
  </g>
</svg>