<svg width="24" height="24" viewBox="0 0 24 24" fill="none" xmlns="http://www.w3.org/2000/svg">
<g clip-path="url(#clip0_132_448)">
<path d="M12 17C14.7614 17 17 14.7614 17 12C17 9.23858 14.7614 7 12 7C9.23858 7 7 9.23858 7 12C7 14.7614 9.23858 17 12 17Z" stroke="black" stroke-width="2" stroke-miterlimit="10"/>
<path d="M13 2C13 1.44772 12.5523 1 12 1C11.4477 1 11 1.44772 11 2V4C11 4.55228 11.4477 5 12 5C12.5523 5 13 4.55228 13 4V2Z" fill="black"/>
<path d="M13 20C13 19.4477 12.5523 19 12 19C11.4477 19 11 19.4477 11 20V22C11 22.5523 11.4477 23 12 23C12.5523 23 13 22.5523 13 22V20Z" fill="black"/>
<path d="M21.1558 7.86466C21.6341 7.58852 21.798 6.97693 21.5219 6.49864C21.2457 6.02035 20.6341 5.85647 20.1558 6.13261L18.4238 7.13261C17.9455 7.40876 17.7816 8.02035 18.0578 8.49864C18.3339 8.97693 18.9455 9.14081 19.4238 8.86466L21.1558 7.86466Z" fill="black"/>
<path d="M5.57161 16.872C6.0499 16.5958 6.21378 15.9843 5.93764 15.506C5.66149 15.0277 5.0499 14.8638 4.57161 15.1399L2.83956 16.1399C2.36127 16.4161 2.19739 17.0277 2.47354 17.506C2.74968 17.9843 3.36127 18.1481 3.83956 17.872L5.57161 16.872Z" fill="black"/>
<path d="M3.84417 6.128C3.36587 5.85186 2.75428 6.01574 2.47814 6.49403C2.202 6.97232 2.36587 7.58391 2.84417 7.86005L4.57622 8.86005C5.05451 9.1362 5.6661 8.97232 5.94224 8.49403C6.21839 8.01574 6.05451 7.40415 5.57622 7.128L3.84417 6.128Z" fill="black"/>
<path d="M19.4284 15.1353C18.9501 14.8592 18.3385 15.0231 18.0624 15.5014C17.7862 15.9796 17.9501 16.5912 18.4284 16.8674L20.1604 17.8674C20.6387 18.1435 21.2503 17.9796 21.5265 17.5014C21.8026 17.0231 21.6387 16.4115 21.1604 16.1353L19.4284 15.1353Z" fill="black"/>
</g>
<defs>
<clipPath id="clip0_132_448">
<rect width="24" height="24" fill="white"/>
</clipPath>
</defs>
</svg>
