<svg width="24" height="24" viewBox="0 0 24 24" fill="none" xmlns="http://www.w3.org/2000/svg">
<g clip-path="url(#clip0_113_475)">
<path d="M13 2C13 1.44772 12.5523 1 12 1C11.4477 1 11 1.44772 11 2V4C11 4.55228 11.4477 5 12 5C12.5523 5 13 4.55228 13 4V2Z" fill="black"/>
<path d="M3.84416 6.12801C3.36587 5.85187 2.75428 6.01574 2.47813 6.49404C2.20199 6.97233 2.36587 7.58392 2.84416 7.86006L4.57621 8.86006C5.0545 9.1362 5.66609 8.97233 5.94224 8.49404C6.21838 8.01574 6.0545 7.40415 5.57621 7.12801L3.84416 6.12801Z" fill="black"/>
<path d="M19.4284 15.1353C18.9501 14.8592 18.3385 15.0231 18.0624 15.5014C17.7862 15.9797 17.9501 16.5912 18.4284 16.8674L20.1604 17.8674C20.6387 18.1435 21.2503 17.9797 21.5265 17.5014C21.8026 17.0231 21.6387 16.4115 21.1604 16.1353L19.4284 15.1353Z" fill="black"/>
<path d="M2.83839 16.128C2.3601 16.4042 2.19622 17.0157 2.47237 17.494C2.74851 17.9723 3.3601 18.1362 3.83839 17.8601L5.57044 16.8601C6.04874 16.5839 6.21261 15.9723 5.93647 15.494C5.66033 15.0157 5.04874 14.8519 4.57044 15.128L2.83839 16.128Z" fill="black"/>
<path d="M18.4342 7.13534C17.9559 7.41148 17.792 8.02307 18.0681 8.50136C18.3443 8.97965 18.9559 9.14353 19.4342 8.86739L21.1662 7.86739C21.6445 7.59124 21.8084 6.97965 21.5322 6.50136C21.2561 6.02307 20.6445 5.85919 20.1662 6.13534L18.4342 7.13534Z" fill="black"/>
<path d="M12 8C14.21 8 16 9.79 16 12C16 13.28 15.41 14.45 14.38 15.21C13.52 15.85 13 16.89 13 18V21H11V18C11 16.9 10.48 15.85 9.61 15.2C8.4 14.3 7.82 12.85 8.05 11.34C8.32 9.62 9.77 8.23 11.51 8.02C11.67 8 11.84 7.99 12 7.99M12 6C11.76 6 11.52 6.01 11.27 6.04C8.65001 6.35 6.48 8.43 6.07 11.04C5.7 13.39 6.71 15.54 8.41 16.81C8.78 17.09 9 17.54 9 18V21C9 22.1 9.9 23 11 23H13C14.1 23 15 22.1 15 21V18C15 17.54 15.2 17.09 15.57 16.82C17.04 15.73 18 13.98 18 12C18 8.69 15.31 6 12 6Z" fill="black"/>
<path d="M10 18H14" stroke="black" stroke-width="2" stroke-miterlimit="10"/>
</g>
<defs>
<clipPath id="clip0_113_475">
<rect width="24" height="24" fill="white"/>
</clipPath>
</defs>
</svg>
